<svg width="20" height="20" viewBox="0 0 20 20" fill="none" xmlns="http://www.w3.org/2000/svg">
<path d="M11.534 1.04175C12.1172 1.04182 12.6446 1.38932 12.8743 1.92554L13.7459 3.95841H17.5C17.8452 3.95841 18.125 4.23824 18.125 4.58341C18.125 4.92859 17.8452 5.20841 17.5 5.20841H16.8384L16.1353 16.8051C16.0619 18.0146 15.0595 18.9584 13.8477 18.9584H6.15234C4.94053 18.9584 3.93806 18.0146 3.86475 16.8051L3.16162 5.20841H2.5C2.15482 5.20841 1.875 4.92859 1.875 4.58341C1.875 4.23824 2.15482 3.95841 2.5 3.95841H6.25407L7.12565 1.92554C7.35544 1.38941 7.88269 1.04182 8.46598 1.04175H11.534ZM5.1123 16.7294C5.14563 17.2792 5.60153 17.7084 6.15234 17.7084H13.8477C14.3985 17.7084 14.8544 17.2792 14.8877 16.7294L15.5859 5.20841H4.41406L5.1123 16.7294ZM8.46598 2.29175C8.38276 2.29182 8.30758 2.34142 8.27474 2.41789L7.61475 3.95841H12.3853L11.7253 2.41789C11.6925 2.34149 11.6173 2.29182 11.534 2.29175H8.46598Z" fill="#5C5C5C"/>
</svg>
