<svg width="76" height="48" viewBox="0 0 76 48" fill="none" xmlns="http://www.w3.org/2000/svg">
<g clip-path="url(#clip0_1_5540)">
<path d="M2.22489 2.35543C1.42851 7.44796 -2.82697 37.1837 3.09119 46.6786C3.44017 47.2626 3.99155 47.6936 4.63748 47.8873C5.2834 48.081 5.9774 48.0235 6.58372 47.7261C7.21718 47.4133 7.70327 46.8597 7.93636 46.1857C11.3286 36.3609 15.6646 26.8975 20.8821 17.9319C28.8338 4.37642 31.7184 2.15518 29.0071 0.547011C27.4021 -0.0937913 27.3079 -0.146163 26.9523 0.257419C26.5966 0.661002 9.41665 25.7416 6.05178 37.0974C6.05178 37.0974 5.66271 36.6568 5.72351 31.7368C5.7843 26.8168 8.01843 5.06344 6.26456 2.65735C5.4773 1.73311 4.16113 1.462 3.2614 1.45892C3.01126 1.45747 2.76893 1.54722 2.57865 1.7118C2.38836 1.87639 2.26281 2.10482 2.22489 2.35543Z" fill="white"/>
<path d="M42.2436 12.2994C42.2436 12.2994 40.5827 11.2932 39.4838 12.9702C38.3848 14.6472 31.611 24.7155 34.883 29.6813C35.0066 29.8598 35.1481 30.0253 35.3052 30.1751C36.8574 31.6876 37.6429 32.4298 39.549 30.5198C41.5482 28.5136 44.6402 23.8553 45.2611 23.377C44.8513 25.1938 43.6095 30.7714 46.419 33.0261C48.5704 34.6969 48.9026 34.0789 50.4921 32.2279C51.9915 30.4702 57.7936 23.4888 59.8922 19.0354C60.0012 18.8084 60.027 18.5504 59.9651 18.3063C59.9033 18.0622 59.7577 17.8476 59.5539 17.7C59.2031 17.4546 58.7746 17.2683 58.4083 17.3894C57.7036 17.6472 49.8588 29.2372 48.2507 30.2124C48.8374 26.995 49.4614 23.7248 52.9073 15.79C52.9989 15.5776 53.0424 15.3474 53.0346 15.1161C52.988 13.6379 52.7459 12.9981 50.2778 12.9422C50.12 12.9372 49.963 12.9672 49.8181 13.03C49.6732 13.0928 49.5439 13.1869 49.4397 13.3056C47.9775 14.9857 43.1656 21.6907 38.391 26.6254C39.133 23.9702 41.1291 18.1813 43.6499 14.4919C43.9852 13.7373 43.7058 12.7901 42.2436 12.2994Z" fill="white"/>
<path d="M31.4403 11.0422C31.4403 11.0422 30.3591 10.7942 29.9329 11.5044C29.5505 12.1442 21.7034 23.4681 23.1888 31.0326C23.3304 31.8382 23.6762 32.5964 24.1945 33.238C24.7129 33.8797 25.3874 34.3844 26.1566 34.7062C27.1155 35.0828 28.0651 35.1471 28.6355 34.6052C29.6696 33.6194 39.5601 20.468 40.002 17.4618C39.4191 16.8495 38.5854 16.0383 36.9151 18.1934C35.6929 19.77 27.9147 29.903 27.2503 31.0265C27.8238 27.8917 27.1719 24.7508 34.104 13.6902C34.7308 13.0137 34.1918 12.2453 33.355 11.835C32.7317 11.5377 32.0925 11.273 31.4403 11.0422Z" fill="white"/>
<path d="M36.7795 0.120674C36.2546 -0.0564326 35.6848 -0.0380946 35.172 0.172406C34.6592 0.382906 34.237 0.771818 33.9809 1.2695C32.7038 3.57971 29.9609 8.21582 31.4019 9.43056C32.1206 10.0732 32.9306 10.6023 33.8047 11C33.8047 11 33.2821 8.44496 39.7018 2.62863C40.1904 1.91611 40.1812 1.2695 38.7741 0.779836C37.3671 0.290172 36.7795 0.120674 36.7795 0.120674Z" fill="white"/>
<path d="M74.7789 22.9815L61.0019 19.9998L75.0127 20.6535C75.1479 20.6597 75.2807 20.6961 75.4035 20.7607C75.5263 20.8253 75.6368 20.9168 75.7286 21.03C75.8203 21.1432 75.8917 21.276 75.9384 21.4206C75.9852 21.5652 76.0065 21.7189 76.0011 21.8729C75.9957 22.0269 75.9637 22.1782 75.907 22.3181C75.8503 22.458 75.77 22.5838 75.6706 22.6884C75.5712 22.7929 75.4547 22.8742 75.3277 22.9274C75.2008 22.9807 75.0659 23.005 74.9307 22.9988C74.8797 22.9984 74.8289 22.9926 74.7789 22.9815Z" fill="#F57F20"/>
<path d="M73.401 27.8737L61.0019 21L74.3444 26.1015C74.6046 26.2009 74.8116 26.3924 74.92 26.6337C75.0284 26.8751 75.0292 27.1466 74.9223 27.3886C74.8155 27.6305 74.6096 27.823 74.3501 27.9238C74.0905 28.0246 73.7986 28.0254 73.5384 27.926C73.4912 27.912 73.4452 27.8945 73.401 27.8737Z" fill="#F57F20"/>
<path d="M75.0713 16.9129L61.0019 19L74.5806 15.0621C74.714 15.016 74.8562 14.9952 74.9986 15.0009C75.141 15.0066 75.2807 15.0387 75.4091 15.0952C75.5375 15.1518 75.6519 15.2316 75.7453 15.3297C75.8387 15.4279 75.9092 15.5424 75.9524 15.6662C75.9957 15.79 76.0108 15.9206 75.9969 16.0499C75.9829 16.1792 75.9402 16.3046 75.8713 16.4184C75.8024 16.5322 75.7088 16.6319 75.5962 16.7117C75.4836 16.7914 75.3544 16.8493 75.2164 16.882C75.1687 16.8948 75.1203 16.9051 75.0713 16.9129Z" fill="#F57F20"/>
<path d="M73.494 10.9585L61.0019 18L72.3375 9.19576C72.5596 9.03715 72.8341 8.97116 73.1034 9.01164C73.3727 9.05211 73.6161 9.1959 73.7824 9.41287C73.9487 9.62985 74.0252 9.90317 73.9957 10.1756C73.9662 10.448 73.8331 10.6984 73.6243 10.8742C73.5835 10.9063 73.5399 10.9345 73.494 10.9585Z" fill="#F57F20"/>
<path d="M70.7166 5.81142L61.0019 16.9998L68.9638 4.53276C69.0385 4.40755 69.1378 4.29852 69.2559 4.21211C69.3739 4.12571 69.5082 4.06369 69.6508 4.02975C69.7934 3.9958 69.9415 3.99061 70.0861 4.01449C70.2308 4.03837 70.3692 4.09083 70.4931 4.16875C70.6169 4.24668 70.7238 4.34849 70.8072 4.46815C70.8907 4.58781 70.9491 4.72287 70.9789 4.86534C71.0088 5.0078 71.0095 5.15476 70.9811 5.29751C70.9526 5.44026 70.8955 5.57588 70.8133 5.69634C70.7843 5.72831 70.7488 5.77306 70.7166 5.81142Z" fill="#F57F20"/>
<path d="M63.9408 3.40605L59.0001 16.9998L61.979 2.80804C62.0442 2.53864 62.2073 2.30624 62.4338 2.15999C62.6604 2.01374 62.9326 1.96512 63.1929 2.0244C63.4532 2.08368 63.6812 2.24621 63.8286 2.47763C63.9761 2.70904 64.0315 2.9912 63.983 3.26442C63.9709 3.30534 63.9559 3.35884 63.9408 3.40605Z" fill="#F57F20"/>
<path d="M57.9902 2.03824L57.8246 15.9998L56.0052 2.1622C55.9877 2.0286 55.9962 1.89279 56.03 1.76252C56.0639 1.63226 56.1226 1.51009 56.2026 1.40298C56.2827 1.29588 56.3826 1.20595 56.4967 1.13832C56.6108 1.07068 56.7368 1.02668 56.8675 1.00881C56.9983 0.990946 57.1312 0.99957 57.2586 1.03419C57.3861 1.06881 57.5056 1.12875 57.6104 1.21058C57.7152 1.29242 57.8032 1.39455 57.8694 1.51114C57.9356 1.62773 57.9786 1.7565 57.9961 1.8901C57.997 1.93956 57.995 1.98902 57.9902 2.03824Z" fill="#F57F20"/>
<path d="M52.0917 3.63071L56.9963 17L50.0874 4.45862C49.977 4.21737 49.9666 3.94533 50.0582 3.69708C50.1499 3.44883 50.3368 3.24272 50.5814 3.12011C50.8261 2.9975 51.1104 2.96745 51.3774 3.03599C51.6443 3.10453 51.8742 3.26659 52.0209 3.48966C52.0486 3.53471 52.0723 3.58189 52.0917 3.63071Z" fill="#F57F20"/>
<path d="M75.998 40.9395L68.2725 39.9402C65.6871 39.6702 63.1048 39.41 60.5256 39.1597L56.6445 38.8847C55.3508 38.799 54.0632 38.6778 52.7665 38.6423L48.8854 38.4826L47.9174 38.4412C47.5948 38.4412 47.2721 38.4412 46.9464 38.4412L45.0104 38.4205L43.0714 38.3998C42.7488 38.3998 42.4261 38.3998 42.1035 38.3998L41.1355 38.4205L37.2666 38.5033L33.4099 38.7044C32.7676 38.731 32.1284 38.796 31.4891 38.8492L29.5714 39.0178C29.267 39.0473 28.9322 39.068 28.6156 39.1035L27.6598 39.2188L25.7604 39.4494L25.2825 39.5115L24.8107 39.5825L23.867 39.7332L22.9234 39.8781C22.619 39.9254 22.2964 39.9786 21.9859 40.0407L20.123 40.3985C19.5142 40.5315 18.9054 40.6941 18.2966 40.8153C17.9922 40.8804 17.6878 40.972 17.3834 41.0489C17.079 41.1258 16.7746 41.2056 16.4885 41.2914L15.6179 41.5604C15.4748 41.6047 15.3439 41.6521 15.207 41.6994L15.003 41.7703L14.8478 41.8324L14.7869 41.8561C14.2884 42.0521 13.7301 42.0477 13.2349 41.844C12.7397 41.6402 12.3481 41.2537 12.1462 40.7695C11.9444 40.2853 11.9489 39.7431 12.1587 39.2621C12.3685 38.7811 12.7664 38.4007 13.2649 38.2047L13.3928 38.1604L13.6972 38.0628L13.9589 37.9918C14.1294 37.9445 14.3059 37.8913 14.4764 37.8499L15.484 37.6075C15.8188 37.5336 16.1475 37.4744 16.4824 37.4035C16.8172 37.3325 17.146 37.2616 17.4778 37.2143C18.1413 37.1078 18.8019 36.9925 19.4624 36.895L21.4471 36.6377C21.7758 36.5934 22.1076 36.5609 22.4394 36.5313L23.4287 36.4426L24.418 36.351L24.9111 36.3037L25.4073 36.2741L27.3859 36.1588L28.3752 36.1026C28.7039 36.1026 29.0327 36.0849 29.3614 36.073L31.3369 36.0287C31.9944 36.011 32.6519 35.9903 33.3094 36.005L37.2453 36.0464L41.172 36.209L42.1552 36.2504C42.4809 36.2652 42.8066 36.2977 43.1354 36.3184L45.0896 36.4604L47.0438 36.6052C47.3695 36.6318 47.6952 36.6496 48.0209 36.6821L48.995 36.7826L52.8882 37.1906C54.188 37.3089 55.4756 37.5129 56.7693 37.6785L60.6412 38.2018C63.2103 38.6196 65.7774 39.0434 68.3425 39.4731L75.998 40.9395Z" fill="white"/>
</g>
<defs>
<clipPath id="clip0_1_5540">
<rect width="76" height="48" fill="white"/>
</clipPath>
</defs>
</svg>
