<svg width="20" height="20" viewBox="0 0 20 20" fill="none" xmlns="http://www.w3.org/2000/svg">
<path d="M11.2393 16.773L14.234 13.7784C14.5388 13.4736 15.0045 13.397 15.4057 13.5546C15.9639 13.7738 16.8195 14.0605 17.7521 14.1944C18.2996 14.273 18.7501 14.7178 18.7501 15.2709V17.7745C18.7501 18.3275 18.301 18.7788 17.7487 18.7486C8.59046 18.2471 1.25295 10.9096 0.751497 1.75139C0.721257 1.19914 1.17251 0.75 1.72559 0.75H4.22919C4.78227 0.75 5.22703 1.20051 5.30564 1.74797C5.43956 2.68061 5.72627 3.53617 5.9455 4.09436C6.10308 4.49557 6.02648 4.96135 5.72168 5.26614L2.72703 8.2608" stroke="white" stroke-width="1.5" stroke-linecap="round" stroke-linejoin="round"/>
</svg>
